<svg xmlns="http://www.w3.org/2000/svg" viewBox="0 0 590 640" width="590" height="640" role="img" aria-label="Langages : C# / .NET 17 800 h expert, C / C++ 4 200 h avancé, Python 2 500 h avancé, Objective-C 1 500 h professionnel, Bash / Shell 680 h professionnel"><title>Langages : C# / .NET 17 800 h expert, C / C++ 4 200 h avancé, Python 2 500 h avancé, Objective-C 1 500 h professionnel, Bash / Shell 680 h professionnel</title><defs><pattern id="dots" width="24" height="24" patternUnits="userSpaceOnUse"><circle cx="2" cy="2" r="1.3" fill="#1d2419"/></pattern></defs><rect x="10.5" y="10.5" width="569" height="619" rx="22" fill="#0c0f0a" stroke="#262e21"/><rect x="11" y="11" width="568" height="618" rx="21" fill="url(#dots)"/><text x="50.0" y="70.0" font-family="ui-monospace, 'SF Mono', Menlo, Consolas, 'Liberation Mono', monospace" font-size="20" font-weight="500" fill="#7b8472" text-anchor="start">skills.languages</text><path transform="translate(50.0,120.0)" fill="#eef2e8" d="M1.59375 0.0V-24.736328125H7.5703125V-5.080078125H18.52734375V0.0ZM26.1806640625 0.298828125Q23.541015625 0.298828125 21.85595703125 -0.98779296875Q20.1708984375 -2.2744140625 20.1708984375 -4.8974609375Q20.1708984375 -6.873046875 21.09228515625 -8.0185546875Q22.013671875 -9.1640625 23.5576171875 -9.7119140625Q25.1015625 -10.259765625 26.9775390625 -10.4091796875Q29.3349609375 -10.6083984375 30.2978515625 -10.890625Q31.2607421875 -11.1728515625 31.2607421875 -11.9697265625V-12.052734375Q31.2607421875 -12.8330078125 30.60498046875 -13.32275390625Q29.94921875 -13.8125 28.8203125 -13.8125Q27.625 -13.8125 26.91943359375 -13.28125Q26.2138671875 -12.75 26.130859375 -11.853515625H20.818359375Q21.0009765625 -14.708984375 23.10107421875 -16.31103515625Q25.201171875 -17.9130859375 29.01953125 -17.9130859375Q32.837890625 -17.9130859375 34.8798828125 -16.31103515625Q36.921875 -14.708984375 36.921875 -11.8037109375V0.0H31.34375V-2.45703125H31.27734375Q30.4970703125 -1.0458984375 29.2685546875 -0.37353515625Q28.0400390625 0.298828125 26.1806640625 0.298828125ZM27.923828125 -3.4365234375Q29.3515625 -3.4365234375 30.3310546875 -4.22509765625Q31.310546875 -5.013671875 31.310546875 -6.30859375V-7.90234375Q30.8623046875 -7.6865234375 30.0654296875 -7.5205078125Q29.2685546875 -7.3544921875 28.2060546875 -7.171875Q27.060546875 -6.9892578125 26.32177734375 -6.5078125Q25.5830078125 -6.0263671875 25.5830078125 -5.1630859375Q25.5830078125 -4.349609375 26.23046875 -3.89306640625Q26.8779296875 -3.4365234375 27.923828125 -3.4365234375ZM45.8203125 -9.529296875V0.0H40.109375V-17.53125H45.75390625V-14.6923828125Q46.6337890625 -16.1865234375 47.9951171875 -17.0498046875Q49.3564453125 -17.9130859375 51.33203125 -17.9130859375Q54.1875 -17.9130859375 55.77294921875 -16.0869140625Q57.3583984375 -14.2607421875 57.3583984375 -11.0234375V0.0H51.6474609375V-9.828125Q51.6474609375 -11.388671875 50.900390625 -12.21044921875Q50.1533203125 -13.0322265625 48.7919921875 -13.0322265625Q47.447265625 -13.0322265625 46.6337890625 -12.17724609375Q45.8203125 -11.322265625 45.8203125 -9.529296875ZM69.1953125 7.171875Q65.14453125 7.171875 63.11083984375 5.5283203125Q61.0771484375 3.884765625 60.6787109375 1.361328125H66.140625Q66.373046875 2.1748046875 67.169921875 2.64794921875Q67.966796875 3.12109375 69.1953125 3.12109375Q72.44921875 3.12109375 72.44921875 -0.3984375V-3.1044921875H72.4326171875Q71.7353515625 -1.5439453125 70.423828125 -0.830078125Q69.1123046875 -0.1162109375 67.40234375 -0.1162109375Q65.0947265625 -0.1162109375 63.39306640625 -1.25341796875Q61.69140625 -2.390625 60.75341796875 -4.3828125Q59.8154296875 -6.375 59.8154296875 -8.9482421875Q59.8154296875 -11.5546875 60.7783203125 -13.580078125Q61.7412109375 -15.60546875 63.4345703125 -16.75927734375Q65.1279296875 -17.9130859375 67.3525390625 -17.9130859375Q70.755859375 -17.9130859375 72.4326171875 -15.07421875H72.44921875V-17.53125H78.126953125V-0.962890625Q78.126953125 3.3203125 75.71142578125 5.24609375Q73.2958984375 7.171875 69.1953125 7.171875ZM68.99609375 -4.5986328125Q70.623046875 -4.5986328125 71.62744140625 -5.80224609375Q72.6318359375 -7.005859375 72.6318359375 -9.0478515625Q72.6318359375 -11.056640625 71.62744140625 -12.2685546875Q70.623046875 -13.48046875 68.99609375 -13.48046875Q67.4189453125 -13.48046875 66.51416015625 -12.3017578125Q65.609375 -11.123046875 65.609375 -9.0478515625Q65.609375 -6.9560546875 66.51416015625 -5.77734375Q67.4189453125 -4.5986328125 68.99609375 -4.5986328125ZM86.6767578125 0.298828125Q84.037109375 0.298828125 82.35205078125 -0.98779296875Q80.6669921875 -2.2744140625 80.6669921875 -4.8974609375Q80.6669921875 -6.873046875 81.58837890625 -8.0185546875Q82.509765625 -9.1640625 84.0537109375 -9.7119140625Q85.59765625 -10.259765625 87.4736328125 -10.4091796875Q89.8310546875 -10.6083984375 90.7939453125 -10.890625Q91.7568359375 -11.1728515625 91.7568359375 -11.9697265625V-12.052734375Q91.7568359375 -12.8330078125 91.10107421875 -13.32275390625Q90.4453125 -13.8125 89.31640625 -13.8125Q88.12109375 -13.8125 87.41552734375 -13.28125Q86.7099609375 -12.75 86.626953125 -11.853515625H81.314453125Q81.4970703125 -14.708984375 83.59716796875 -16.31103515625Q85.697265625 -17.9130859375 89.515625 -17.9130859375Q93.333984375 -17.9130859375 95.3759765625 -16.31103515625Q97.41796875 -14.708984375 97.41796875 -11.8037109375V0.0H91.83984375V-2.45703125H91.7734375Q90.9931640625 -1.0458984375 89.7646484375 -0.37353515625Q88.5361328125 0.298828125 86.6767578125 0.298828125ZM88.419921875 -3.4365234375Q89.84765625 -3.4365234375 90.8271484375 -4.22509765625Q91.806640625 -5.013671875 91.806640625 -6.30859375V-7.90234375Q91.3583984375 -7.6865234375 90.5615234375 -7.5205078125Q89.7646484375 -7.3544921875 88.7021484375 -7.171875Q87.556640625 -6.9892578125 86.81787109375 -6.5078125Q86.0791015625 -6.0263671875 86.0791015625 -5.1630859375Q86.0791015625 -4.349609375 86.7265625 -3.89306640625Q87.3740234375 -3.4365234375 88.419921875 -3.4365234375ZM109.2548828125 7.171875Q105.2041015625 7.171875 103.17041015625 5.5283203125Q101.13671875 3.884765625 100.73828125 1.361328125H106.2001953125Q106.4326171875 2.1748046875 107.2294921875 2.64794921875Q108.0263671875 3.12109375 109.2548828125 3.12109375Q112.5087890625 3.12109375 112.5087890625 -0.3984375V-3.1044921875H112.4921875Q111.794921875 -1.5439453125 110.4833984375 -0.830078125Q109.171875 -0.1162109375 107.4619140625 -0.1162109375Q105.154296875 -0.1162109375 103.45263671875 -1.25341796875Q101.7509765625 -2.390625 100.81298828125 -4.3828125Q99.875 -6.375 99.875 -8.9482421875Q99.875 -11.5546875 100.837890625 -13.580078125Q101.80078125 -15.60546875 103.494140625 -16.75927734375Q105.1875 -17.9130859375 107.412109375 -17.9130859375Q110.8154296875 -17.9130859375 112.4921875 -15.07421875H112.5087890625V-17.53125H118.1865234375V-0.962890625Q118.1865234375 3.3203125 115.77099609375 5.24609375Q113.35546875 7.171875 109.2548828125 7.171875ZM109.0556640625 -4.5986328125Q110.6826171875 -4.5986328125 111.68701171875 -5.80224609375Q112.69140625 -7.005859375 112.69140625 -9.0478515625Q112.69140625 -11.056640625 111.68701171875 -12.2685546875Q110.6826171875 -13.48046875 109.0556640625 -13.48046875Q107.478515625 -13.48046875 106.57373046875 -12.3017578125Q105.6689453125 -11.123046875 105.6689453125 -9.0478515625Q105.6689453125 -6.9560546875 106.57373046875 -5.77734375Q107.478515625 -4.5986328125 109.0556640625 -4.5986328125ZM129.6748046875 0.3984375Q126.9853515625 0.3984375 124.95166015625 -0.7802734375Q122.91796875 -1.958984375 121.78076171875 -4.02587890625Q120.6435546875 -6.0927734375 120.6435546875 -8.765625Q120.6435546875 -11.4384765625 121.78076171875 -13.50537109375Q122.91796875 -15.572265625 124.9267578125 -16.7509765625Q126.935546875 -17.9296875 129.525390625 -17.9296875Q132.1650390625 -17.9296875 134.16552734375 -16.77587890625Q136.166015625 -15.6220703125 137.294921875 -13.58837890625Q138.423828125 -11.5546875 138.423828125 -8.8984375V-7.3544921875H126.2216796875Q126.271484375 -5.677734375 127.22607421875 -4.6982421875Q128.1806640625 -3.71875 129.8740234375 -3.71875Q131.1357421875 -3.71875 131.99072265625 -4.2333984375Q132.845703125 -4.748046875 133.1611328125 -5.611328125H138.291015625Q137.9755859375 -3.8515625 136.763671875 -2.490234375Q135.5517578125 -1.12890625 133.71728515625 -0.365234375Q131.8828125 0.3984375 129.6748046875 0.3984375ZM126.2548828125 -10.7744140625H133.0947265625Q132.8955078125 -12.15234375 131.9990234375 -12.9326171875Q131.1025390625 -13.712890625 129.6748046875 -13.712890625Q128.23046875 -13.712890625 127.333984375 -12.9326171875Q126.4375 -12.15234375 126.2548828125 -10.7744140625ZM148.55078125 0.431640625Q146.126953125 0.431640625 144.2509765625 -0.298828125Q142.375 -1.029296875 141.25439453125 -2.390625Q140.1337890625 -3.751953125 139.984375 -5.611328125H145.6123046875Q145.7451171875 -4.6318359375 146.4755859375 -4.0673828125Q147.2060546875 -3.5029296875 148.4677734375 -3.5029296875Q149.646484375 -3.5029296875 150.310546875 -3.91796875Q150.974609375 -4.3330078125 150.974609375 -4.9970703125Q150.974609375 -6.0927734375 148.849609375 -6.474609375L145.6787109375 -7.0390625Q143.0888671875 -7.50390625 141.73583984375 -8.8154296875Q140.3828125 -10.126953125 140.3828125 -12.2021484375Q140.3828125 -14.7919921875 142.474609375 -16.34423828125Q144.56640625 -17.896484375 148.2353515625 -17.896484375Q151.904296875 -17.896484375 154.0791015625 -16.26953125Q156.25390625 -14.642578125 156.3369140625 -11.8369140625H151.07421875Q151.0576171875 -12.75 150.31884765625 -13.3642578125Q149.580078125 -13.978515625 148.4345703125 -13.978515625Q147.322265625 -13.978515625 146.69970703125 -13.546875Q146.0771484375 -13.115234375 146.0771484375 -12.4677734375Q146.0771484375 -11.388671875 147.9697265625 -11.0234375L151.4892578125 -10.3759765625Q154.1953125 -9.8779296875 155.490234375 -8.7158203125Q156.78515625 -7.5537109375 156.78515625 -5.5947265625Q156.78515625 -3.8017578125 155.74755859375 -2.4404296875Q154.7099609375 -1.0791015625 152.85888671875 -0.32373046875Q151.0078125 0.431640625 148.55078125 0.431640625Z"/><text x="50.0" y="180.0" font-family="-apple-system, 'Segoe UI', Helvetica, Arial, sans-serif" font-size="22" font-weight="600" fill="#eef2e8" text-anchor="start">C# / .NET</text><text x="540.0" y="180.0" font-family="-apple-system, 'Segoe UI', Helvetica, Arial, sans-serif" font-size="21" font-weight="700" fill="#a3e635" text-anchor="end">expert</text><text x="50.0" y="210.0" font-family="ui-monospace, 'SF Mono', Menlo, Consolas, 'Liberation Mono', monospace" font-size="20" font-weight="500" fill="#a3ab9a" text-anchor="start">≈ 17 800 h · 2006–2026</text><text x="540.0" y="210.0" font-family="ui-monospace, 'SF Mono', Menlo, Consolas, 'Liberation Mono', monospace" font-size="20" font-weight="500" fill="#a3e635" text-anchor="end">actif</text><rect x="50" y="226" width="490" height="6" rx="3" fill="#1a2016"/><rect x="50" y="226" width="482.5" height="6" rx="3" fill="#a3e635"/><line x1="450.6" y1="223" x2="450.6" y2="235" stroke="#0c0f0a" stroke-width="2"/><line x1="377.2" y1="223" x2="377.2" y2="235" stroke="#0c0f0a" stroke-width="2"/><line x1="302.2" y1="223" x2="302.2" y2="235" stroke="#0c0f0a" stroke-width="2"/><line x1="153.8" y1="223" x2="153.8" y2="235" stroke="#0c0f0a" stroke-width="2"/><text x="50.0" y="272.0" font-family="-apple-system, 'Segoe UI', Helvetica, Arial, sans-serif" font-size="22" font-weight="600" fill="#eef2e8" text-anchor="start">C / C++</text><text x="540.0" y="272.0" font-family="-apple-system, 'Segoe UI', Helvetica, Arial, sans-serif" font-size="21" font-weight="700" fill="#a3e635" text-anchor="end">avancé</text><text x="50.0" y="302.0" font-family="ui-monospace, 'SF Mono', Menlo, Consolas, 'Liberation Mono', monospace" font-size="20" font-weight="500" fill="#a3ab9a" text-anchor="start">≈ 4 200 h · 2006–2013</text><text x="540.0" y="302.0" font-family="ui-monospace, 'SF Mono', Menlo, Consolas, 'Liberation Mono', monospace" font-size="20" font-weight="500" fill="#7b8472" text-anchor="end">vu en 2013</text><rect x="50" y="318" width="490" height="6" rx="3" fill="#1a2016"/><rect x="50" y="318" width="389.9" height="6" rx="3" fill="#a3e635"/><line x1="450.6" y1="315" x2="450.6" y2="327" stroke="#0c0f0a" stroke-width="2"/><line x1="377.2" y1="315" x2="377.2" y2="327" stroke="#0c0f0a" stroke-width="2"/><line x1="302.2" y1="315" x2="302.2" y2="327" stroke="#0c0f0a" stroke-width="2"/><line x1="153.8" y1="315" x2="153.8" y2="327" stroke="#0c0f0a" stroke-width="2"/><text x="50.0" y="364.0" font-family="-apple-system, 'Segoe UI', Helvetica, Arial, sans-serif" font-size="22" font-weight="600" fill="#eef2e8" text-anchor="start">Python</text><text x="540.0" y="364.0" font-family="-apple-system, 'Segoe UI', Helvetica, Arial, sans-serif" font-size="21" font-weight="700" fill="#a3e635" text-anchor="end">avancé</text><text x="50.0" y="394.0" font-family="ui-monospace, 'SF Mono', Menlo, Consolas, 'Liberation Mono', monospace" font-size="20" font-weight="500" fill="#a3ab9a" text-anchor="start">≈ 2 500 h · 2022–2026</text><text x="540.0" y="394.0" font-family="ui-monospace, 'SF Mono', Menlo, Consolas, 'Liberation Mono', monospace" font-size="20" font-weight="500" fill="#a3e635" text-anchor="end">actif</text><rect x="50" y="410" width="490" height="6" rx="3" fill="#1a2016"/><rect x="50" y="410" width="358.3" height="6" rx="3" fill="#a3e635"/><line x1="450.6" y1="407" x2="450.6" y2="419" stroke="#0c0f0a" stroke-width="2"/><line x1="377.2" y1="407" x2="377.2" y2="419" stroke="#0c0f0a" stroke-width="2"/><line x1="302.2" y1="407" x2="302.2" y2="419" stroke="#0c0f0a" stroke-width="2"/><line x1="153.8" y1="407" x2="153.8" y2="419" stroke="#0c0f0a" stroke-width="2"/><text x="50.0" y="456.0" font-family="-apple-system, 'Segoe UI', Helvetica, Arial, sans-serif" font-size="22" font-weight="600" fill="#eef2e8" text-anchor="start">Objective-C</text><text x="540.0" y="456.0" font-family="-apple-system, 'Segoe UI', Helvetica, Arial, sans-serif" font-size="21" font-weight="700" fill="#a3e635" text-anchor="end">professionnel</text><text x="50.0" y="486.0" font-family="ui-monospace, 'SF Mono', Menlo, Consolas, 'Liberation Mono', monospace" font-size="20" font-weight="500" fill="#a3ab9a" text-anchor="start">≈ 1 500 h · 2011–2020</text><text x="540.0" y="486.0" font-family="ui-monospace, 'SF Mono', Menlo, Consolas, 'Liberation Mono', monospace" font-size="20" font-weight="500" fill="#7b8472" text-anchor="end">vu en 2020</text><rect x="50" y="502" width="490" height="6" rx="3" fill="#1a2016"/><rect x="50" y="502" width="323.2" height="6" rx="3" fill="#a3e635"/><line x1="450.6" y1="499" x2="450.6" y2="511" stroke="#0c0f0a" stroke-width="2"/><line x1="377.2" y1="499" x2="377.2" y2="511" stroke="#0c0f0a" stroke-width="2"/><line x1="302.2" y1="499" x2="302.2" y2="511" stroke="#0c0f0a" stroke-width="2"/><line x1="153.8" y1="499" x2="153.8" y2="511" stroke="#0c0f0a" stroke-width="2"/><text x="50.0" y="548.0" font-family="-apple-system, 'Segoe UI', Helvetica, Arial, sans-serif" font-size="22" font-weight="600" fill="#eef2e8" text-anchor="start">Bash / Shell</text><text x="540.0" y="548.0" font-family="-apple-system, 'Segoe UI', Helvetica, Arial, sans-serif" font-size="21" font-weight="700" fill="#a3e635" text-anchor="end">professionnel</text><text x="50.0" y="578.0" font-family="ui-monospace, 'SF Mono', Menlo, Consolas, 'Liberation Mono', monospace" font-size="20" font-weight="500" fill="#a3ab9a" text-anchor="start">≈ 680 h · 2014–2026</text><text x="540.0" y="578.0" font-family="ui-monospace, 'SF Mono', Menlo, Consolas, 'Liberation Mono', monospace" font-size="20" font-weight="500" fill="#a3e635" text-anchor="end">actif</text><rect x="50" y="594" width="490" height="6" rx="3" fill="#1a2016"/><rect x="50" y="594" width="272.0" height="6" rx="3" fill="#a3e635"/><line x1="450.6" y1="591" x2="450.6" y2="603" stroke="#0c0f0a" stroke-width="2"/><line x1="377.2" y1="591" x2="377.2" y2="603" stroke="#0c0f0a" stroke-width="2"/><line x1="302.2" y1="591" x2="302.2" y2="603" stroke="#0c0f0a" stroke-width="2"/><line x1="153.8" y1="591" x2="153.8" y2="603" stroke="#0c0f0a" stroke-width="2"/></svg>
