<svg xmlns="http://www.w3.org/2000/svg" viewBox="0 0 590 440" width="590" height="440" role="img" aria-label="FFBBApiClientV2_Python: Python client for the French Basketball Federation (FFBB) v2 API. Stack: AI-Driven Development, Bash / Shell, Python."><title>FFBBApiClientV2_Python: Python client for the French Basketball Federation (FFBB) v2 API. Stack: AI-Driven Development, Bash / Shell, Python.</title><defs><pattern id="dots" width="24" height="24" patternUnits="userSpaceOnUse"><circle cx="2" cy="2" r="1.3" fill="#1d2419"/></pattern></defs><rect x="10.5" y="10.5" width="569" height="419" rx="22" fill="#0c0f0a" stroke="#262e21"/><rect x="11" y="11" width="568" height="418" rx="21" fill="url(#dots)"/><text x="50" y="70" font-family="ui-monospace, 'SF Mono', Menlo, Consolas, 'Liberation Mono', monospace" font-size="20" font-weight="500" fill="#7b8472">pypi</text><path transform="translate(50,120)" fill="#eef2e8" d="M1.59375 0.0V-24.736328125H19.45703125V-19.65625H7.5703125V-14.3935546875H18.7099609375V-9.4794921875H7.5703125V0.0ZM21.748046875 0.0V-24.736328125H39.611328125V-19.65625H27.724609375V-14.3935546875H38.8642578125V-9.4794921875H27.724609375V0.0ZM41.90234375 0.0V-24.736328125H52.1953125Q56.3125 -24.736328125 58.49560546875 -22.9931640625Q60.6787109375 -21.25 60.6787109375 -18.4609375Q60.6787109375 -16.3193359375 59.42529296875 -14.88330078125Q58.171875 -13.447265625 56.080078125 -12.982421875V-12.94921875Q57.6240234375 -12.849609375 58.86083984375 -12.09423828125Q60.09765625 -11.3388671875 60.81982421875 -10.03564453125Q61.5419921875 -8.732421875 61.5419921875 -6.9892578125Q61.5419921875 -4.947265625 60.53759765625 -3.3701171875Q59.533203125 -1.79296875 57.61572265625 -0.896484375Q55.6982421875 0.0 52.9423828125 0.0ZM47.7294921875 -4.58203125H51.962890625Q53.58984375 -4.58203125 54.51953125 -5.33740234375Q55.44921875 -6.0927734375 55.44921875 -7.4208984375Q55.44921875 -8.765625 54.52783203125 -9.55419921875Q53.6064453125 -10.3427734375 51.99609375 -10.3427734375H47.7294921875ZM47.7294921875 -14.6923828125H51.630859375Q53.05859375 -14.6923828125 53.888671875 -15.43115234375Q54.71875 -16.169921875 54.71875 -17.431640625Q54.71875 -18.6767578125 53.888671875 -19.41552734375Q53.05859375 -20.154296875 51.630859375 -20.154296875H47.7294921875ZM63.8994140625 0.0V-24.736328125H74.1923828125Q78.3095703125 -24.736328125 80.49267578125 -22.9931640625Q82.67578125 -21.25 82.67578125 -18.4609375Q82.67578125 -16.3193359375 81.42236328125 -14.88330078125Q80.1689453125 -13.447265625 78.0771484375 -12.982421875V-12.94921875Q79.62109375 -12.849609375 80.85791015625 -12.09423828125Q82.0947265625 -11.3388671875 82.81689453125 -10.03564453125Q83.5390625 -8.732421875 83.5390625 -6.9892578125Q83.5390625 -4.947265625 82.53466796875 -3.3701171875Q81.5302734375 -1.79296875 79.61279296875 -0.896484375Q77.6953125 0.0 74.939453125 0.0ZM69.7265625 -4.58203125H73.9599609375Q75.5869140625 -4.58203125 76.5166015625 -5.33740234375Q77.4462890625 -6.0927734375 77.4462890625 -7.4208984375Q77.4462890625 -8.765625 76.52490234375 -9.55419921875Q75.603515625 -10.3427734375 73.9931640625 -10.3427734375H69.7265625ZM69.7265625 -14.6923828125H73.6279296875Q75.0556640625 -14.6923828125 75.8857421875 -15.43115234375Q76.7158203125 -16.169921875 76.7158203125 -17.431640625Q76.7158203125 -18.6767578125 75.8857421875 -19.41552734375Q75.0556640625 -20.154296875 73.6279296875 -20.154296875H69.7265625ZM84.3857421875 0.0 92.8857421875 -24.736328125H100.7548828125L109.3046875 0.0H102.630859375L101.169921875 -4.7646484375H92.3876953125L90.876953125 0.0ZM93.8818359375 -9.4296875H99.7255859375L99.27734375 -10.8740234375Q98.6630859375 -12.94921875 98.05712890625 -15.0244140625Q97.451171875 -17.099609375 96.8369140625 -19.3740234375Q96.2060546875 -17.099609375 95.591796875 -15.0244140625Q94.9775390625 -12.94921875 94.330078125 -10.8740234375ZM110.9814453125 6.939453125V-17.53125H116.6259765625V-15.240234375H116.708984375Q118.2861328125 -17.9130859375 121.755859375 -17.9130859375Q123.98046875 -17.9130859375 125.673828125 -16.7509765625Q127.3671875 -15.5888671875 128.32177734375 -13.5302734375Q129.2763671875 -11.4716796875 129.2763671875 -8.798828125Q129.2763671875 -6.0263671875 128.33837890625 -3.95947265625Q127.400390625 -1.892578125 125.69873046875 -0.75537109375Q123.9970703125 0.3818359375 121.7060546875 0.3818359375Q118.1533203125 0.3818359375 116.7587890625 -2.6064453125H116.6923828125V6.939453125ZM120.095703125 -4.18359375Q121.6728515625 -4.18359375 122.5859375 -5.412109375Q123.4990234375 -6.640625 123.4990234375 -8.798828125Q123.4990234375 -10.9404296875 122.5859375 -12.15234375Q121.6728515625 -13.3642578125 120.095703125 -13.3642578125Q118.4853515625 -13.3642578125 117.47265625 -12.119140625Q116.4599609375 -10.8740234375 116.4599609375 -8.798828125Q116.4599609375 -6.6904296875 117.47265625 -5.43701171875Q118.4853515625 -4.18359375 120.095703125 -4.18359375ZM131.75 0.0V-17.53125H137.4609375V0.0ZM134.5888671875 -19.2412109375Q133.2275390625 -19.2412109375 132.33935546875 -20.0546875Q131.451171875 -20.8681640625 131.451171875 -22.1298828125Q131.451171875 -23.3916015625 132.33935546875 -24.19677734375Q133.2275390625 -25.001953125 134.5888671875 -25.001953125Q135.966796875 -25.001953125 136.85498046875 -24.19677734375Q137.7431640625 -23.3916015625 137.7431640625 -22.1298828125Q137.7431640625 -20.8681640625 136.85498046875 -20.0546875Q135.966796875 -19.2412109375 134.5888671875 -19.2412109375ZM151.8046875 0.3984375Q148.4013671875 0.3984375 145.72021484375 -1.12060546875Q143.0390625 -2.6396484375 141.478515625 -5.4951171875Q139.91796875 -8.3505859375 139.91796875 -12.3515625Q139.91796875 -16.3857421875 141.478515625 -19.24951171875Q143.0390625 -22.11328125 145.72021484375 -23.6240234375Q148.4013671875 -25.134765625 151.8046875 -25.134765625Q154.826171875 -25.134765625 157.216796875 -23.96435546875Q159.607421875 -22.7939453125 161.10986328125 -20.67724609375Q162.6123046875 -18.560546875 162.9775390625 -15.7216796875H156.951171875Q156.5693359375 -17.7138671875 155.23291015625 -18.81787109375Q153.896484375 -19.921875 151.904296875 -19.921875Q149.048828125 -19.921875 147.48828125 -17.90478515625Q145.927734375 -15.8876953125 145.927734375 -12.3515625Q145.927734375 -8.83203125 147.47998046875 -6.8232421875Q149.0322265625 -4.814453125 151.904296875 -4.814453125Q153.896484375 -4.814453125 155.23291015625 -5.91015625Q156.5693359375 -7.005859375 156.9677734375 -8.9814453125H162.9775390625Q162.595703125 -6.142578125 161.09326171875 -4.0341796875Q159.5908203125 -1.92578125 157.20849609375 -0.763671875Q154.826171875 0.3984375 151.8046875 0.3984375ZM171.095703125 -24.736328125V0.0H165.384765625V-24.736328125ZM174.283203125 0.0V-17.53125H179.994140625V0.0ZM177.1220703125 -19.2412109375Q175.7607421875 -19.2412109375 174.87255859375 -20.0546875Q173.984375 -20.8681640625 173.984375 -22.1298828125Q173.984375 -23.3916015625 174.87255859375 -24.19677734375Q175.7607421875 -25.001953125 177.1220703125 -25.001953125Q178.5 -25.001953125 179.38818359375 -24.19677734375Q180.2763671875 -23.3916015625 180.2763671875 -22.1298828125Q180.2763671875 -20.8681640625 179.38818359375 -20.0546875Q178.5 -19.2412109375 177.1220703125 -19.2412109375ZM191.482421875 0.3984375Q188.79296875 0.3984375 186.75927734375 -0.7802734375Q184.7255859375 -1.958984375 183.58837890625 -4.02587890625Q182.451171875 -6.0927734375 182.451171875 -8.765625Q182.451171875 -11.4384765625 183.58837890625 -13.50537109375Q184.7255859375 -15.572265625 186.734375 -16.7509765625Q188.7431640625 -17.9296875 191.3330078125 -17.9296875Q193.97265625 -17.9296875 195.97314453125 -16.77587890625Q197.9736328125 -15.6220703125 199.1025390625 -13.58837890625Q200.2314453125 -11.5546875 200.2314453125 -8.8984375V-7.3544921875H188.029296875Q188.0791015625 -5.677734375 189.03369140625 -4.6982421875Q189.98828125 -3.71875 191.681640625 -3.71875Q192.943359375 -3.71875 193.79833984375 -4.2333984375Q194.6533203125 -4.748046875 194.96875 -5.611328125H200.0986328125Q199.783203125 -3.8515625 198.5712890625 -2.490234375Q197.359375 -1.12890625 195.52490234375 -0.365234375Q193.6904296875 0.3984375 191.482421875 0.3984375ZM188.0625 -10.7744140625H194.90234375Q194.703125 -12.15234375 193.806640625 -12.9326171875Q192.91015625 -13.712890625 191.482421875 -13.712890625Q190.0380859375 -13.712890625 189.1416015625 -12.9326171875Q188.2451171875 -12.15234375 188.0625 -10.7744140625ZM208.3330078125 -9.529296875V0.0H202.6220703125V-17.53125H208.2666015625V-14.6923828125Q209.146484375 -16.1865234375 210.5078125 -17.0498046875Q211.869140625 -17.9130859375 213.8447265625 -17.9130859375Q216.7001953125 -17.9130859375 218.28564453125 -16.0869140625Q219.87109375 -14.2607421875 219.87109375 -11.0234375V0.0H214.16015625V-9.828125Q214.16015625 -11.388671875 213.4130859375 -12.21044921875Q212.666015625 -13.0322265625 211.3046875 -13.0322265625Q209.9599609375 -13.0322265625 209.146484375 -12.17724609375Q208.3330078125 -11.322265625 208.3330078125 -9.529296875ZM234.0986328125 -17.53125V-13.115234375H230.49609375V-5.8935546875Q230.49609375 -5.046875 230.828125 -4.7314453125Q231.16015625 -4.416015625 232.123046875 -4.416015625H234.0986328125V0.0H230.861328125Q227.70703125 0.0 226.23779296875 -1.18701171875Q224.7685546875 -2.3740234375 224.7685546875 -4.9306640625V-13.115234375H221.7802734375V-17.53125H224.7685546875V-22.3125H230.49609375V-17.53125ZM243.37890625 0.0 234.87890625 -24.736328125H241.4033203125L244.873046875 -13.8623046875Q245.4873046875 -11.88671875 246.0849609375 -9.80322265625Q246.6826171875 -7.7197265625 247.3134765625 -5.51171875Q247.9111328125 -7.7197265625 248.48388671875 -9.80322265625Q249.056640625 -11.88671875 249.6376953125 -13.8623046875L252.974609375 -24.736328125H259.4326171875L251.1484375 0.0ZM260.77734375 0.0V-4.2666015625L269.9580078125 -11.88671875Q270.8544921875 -12.6669921875 271.66796875 -13.4140625Q272.4814453125 -14.1611328125 272.9794921875 -15.03271484375Q273.4775390625 -15.904296875 273.4775390625 -17.033203125Q273.4775390625 -18.5771484375 272.5146484375 -19.51513671875Q271.5517578125 -20.453125 269.94140625 -20.453125Q268.181640625 -20.453125 267.1357421875 -19.291015625Q266.08984375 -18.12890625 266.08984375 -16.0205078125H260.611328125Q260.611328125 -18.8095703125 261.74853515625 -20.8515625Q262.8857421875 -22.8935546875 264.98583984375 -24.01416015625Q267.0859375 -25.134765625 269.94140625 -25.134765625Q272.5810546875 -25.134765625 274.63134765625 -24.1884765625Q276.681640625 -23.2421875 277.8603515625 -21.49072265625Q279.0390625 -19.7392578125 279.0390625 -17.3486328125Q279.0390625 -15.5556640625 278.3583984375 -14.11962890625Q277.677734375 -12.68359375 276.44091796875 -11.38037109375Q275.2041015625 -10.0771484375 273.5107421875 -8.666015625L268.87890625 -4.7314453125V-4.6982421875H279.1220703125V0.0ZM296.8193359375 0.0V4.25H280.3671875V0.0ZM298.4130859375 0.0V-24.736328125H308.5400390625Q311.3955078125 -24.736328125 313.4873046875 -23.71533203125Q315.5791015625 -22.6943359375 316.71630859375 -20.818359375Q317.853515625 -18.9423828125 317.853515625 -16.369140625Q317.853515625 -13.8125 316.7080078125 -11.9365234375Q315.5625 -10.060546875 313.46240234375 -9.03125Q311.3623046875 -8.001953125 308.5068359375 -8.001953125H304.3896484375V0.0ZM304.3896484375 -12.9658203125H308.125Q309.91796875 -12.9658203125 310.97216796875 -13.88720703125Q312.0263671875 -14.80859375 312.0263671875 -16.369140625Q312.0263671875 -17.9462890625 310.97216796875 -18.86767578125Q309.91796875 -19.7890625 308.125 -19.7890625H304.3896484375ZM320.6923828125 6.939453125V2.5068359375H323.1162109375Q324.0126953125 2.5068359375 324.3779296875 2.11669921875Q324.7431640625 1.7265625 325.05859375 0.763671875L325.357421875 -0.033203125L318.6171875 -17.53125H324.59375L327.18359375 -9.462890625Q327.4658203125 -8.5498046875 327.7314453125 -7.63671875Q327.9970703125 -6.7236328125 328.2626953125 -5.7939453125Q328.51171875 -6.7236328125 328.78564453125 -7.63671875Q329.0595703125 -8.5498046875 329.341796875 -9.462890625L331.9814453125 -17.53125H337.8916015625L330.337890625 2.4736328125Q329.44140625 4.84765625 328.08837890625 5.8935546875Q326.7353515625 6.939453125 324.52734375 6.939453125ZM350.6083984375 -17.53125V-13.115234375H347.005859375V-5.8935546875Q347.005859375 -5.046875 347.337890625 -4.7314453125Q347.669921875 -4.416015625 348.6328125 -4.416015625H350.6083984375V0.0H347.37109375Q344.216796875 0.0 342.74755859375 -1.18701171875Q341.2783203125 -2.3740234375 341.2783203125 -4.9306640625V-13.115234375H338.2900390625V-17.53125H341.2783203125V-22.3125H347.005859375V-17.53125ZM358.6103515625 -9.529296875V0.0H352.8994140625V-24.736328125H358.6103515625V-14.8251953125Q359.490234375 -16.26953125 360.8349609375 -17.09130859375Q362.1796875 -17.9130859375 364.1220703125 -17.9130859375Q366.9775390625 -17.9130859375 368.56298828125 -16.0869140625Q370.1484375 -14.2607421875 370.1484375 -11.0234375V0.0H364.4375V-9.828125Q364.4375 -11.388671875 363.6904296875 -12.21044921875Q362.943359375 -13.0322265625 361.58203125 -13.0322265625Q360.2373046875 -13.0322265625 359.423828125 -12.17724609375Q358.6103515625 -11.322265625 358.6103515625 -9.529296875ZM381.8359375 0.3984375Q379.080078125 0.3984375 377.0048828125 -0.73046875Q374.9296875 -1.859375 373.767578125 -3.91796875Q372.60546875 -5.9765625 372.60546875 -8.765625Q372.60546875 -11.521484375 373.767578125 -13.58837890625Q374.9296875 -15.6552734375 377.0048828125 -16.79248046875Q379.080078125 -17.9296875 381.8359375 -17.9296875Q384.5751953125 -17.9296875 386.65869140625 -16.79248046875Q388.7421875 -15.6552734375 389.89599609375 -13.58837890625Q391.0498046875 -11.521484375 391.0498046875 -8.765625Q391.0498046875 -5.9765625 389.89599609375 -3.92626953125Q388.7421875 -1.8759765625 386.65869140625 -0.73876953125Q384.5751953125 0.3984375 381.8359375 0.3984375ZM381.8359375 -4.150390625Q383.330078125 -4.150390625 384.30126953125 -5.345703125Q385.2724609375 -6.541015625 385.2724609375 -8.765625Q385.2724609375 -10.990234375 384.30126953125 -12.185546875Q383.330078125 -13.380859375 381.8359375 -13.380859375Q380.341796875 -13.380859375 379.37060546875 -12.185546875Q378.3994140625 -10.990234375 378.3994140625 -8.765625Q378.3994140625 -6.541015625 379.3623046875 -5.345703125Q380.3251953125 -4.150390625 381.8359375 -4.150390625ZM399.2177734375 -9.529296875V0.0H393.5068359375V-17.53125H399.1513671875V-14.6923828125Q400.03125 -16.1865234375 401.392578125 -17.0498046875Q402.75390625 -17.9130859375 404.7294921875 -17.9130859375Q407.5849609375 -17.9130859375 409.17041015625 -16.0869140625Q410.755859375 -14.2607421875 410.755859375 -11.0234375V0.0H405.044921875V-9.828125Q405.044921875 -11.388671875 404.2978515625 -12.21044921875Q403.55078125 -13.0322265625 402.189453125 -13.0322265625Q400.8447265625 -13.0322265625 400.03125 -12.17724609375Q399.2177734375 -11.322265625 399.2177734375 -9.529296875Z"/><text x="50" y="168" font-family="-apple-system, 'Segoe UI', Helvetica, Arial, sans-serif" font-size="21" font-weight="400" fill="#eef2e8">Python client for the French Basketball</text><text x="50" y="198" font-family="-apple-system, 'Segoe UI', Helvetica, Arial, sans-serif" font-size="21" font-weight="400" fill="#eef2e8">Federation (FFBB) v2 API.</text><text x="50" y="240" font-family="ui-monospace, 'SF Mono', Menlo, Consolas, 'Liberation Mono', monospace" font-size="20" font-weight="600" fill="#a3e635">AI-Driven Development · Bash / Shell</text><text x="50" y="268" font-family="ui-monospace, 'SF Mono', Menlo, Consolas, 'Liberation Mono', monospace" font-size="20" font-weight="600" fill="#a3e635">Python</text><text x="50" y="396" font-family="ui-monospace, 'SF Mono', Menlo, Consolas, 'Liberation Mono', monospace" font-size="20" font-weight="500" fill="#a3ab9a">$ pip install ffbb-api-client-v2</text></svg>
