<svg xmlns="http://www.w3.org/2000/svg" viewBox="0 0 820 264" width="100%" role="img" aria-label="Strongest skills, scored out of 99 from exposure hours. C# / .NET 99, Git 96, Xamarin (Forms, iOS, Android) 95, Bluetooth / BLE / GATT 88, AI-Driven Development 83, Python 81, Docker 77, Linux / Ubuntu 75"><title>Strongest skills, scored out of 99 from exposure hours. C# / .NET 99, Git 96, Xamarin (Forms, iOS, Android) 95, Bluetooth / BLE / GATT 88, AI-Driven Development 83, Python 81, Docker 77, Linux / Ubuntu 75</title><text x="0" y="17" font-family="'Inter', system-ui, sans-serif" font-size="12" font-weight="700" fill="#f0f6fc">C# / .NET</text><rect x="150" y="5" width="616" height="16" rx="4" fill="#1c2128"/><rect x="150" y="5" width="616" height="16" rx="4" fill="#818cf8"/><text x="774" y="17" font-family="'JetBrains Mono', ui-monospace, monospace" font-size="11" font-weight="700" fill="#f0f6fc">99</text><text x="0" y="51" font-family="'Inter', system-ui, sans-serif" font-size="12" font-weight="700" fill="#f0f6fc">Git</text><rect x="150" y="39" width="616" height="16" rx="4" fill="#1c2128"/><rect x="150" y="39" width="597.33" height="16" rx="4" fill="#818cf8"/><text x="774" y="51" font-family="'JetBrains Mono', ui-monospace, monospace" font-size="11" font-weight="700" fill="#f0f6fc">96</text><text x="0" y="85" font-family="'Inter', system-ui, sans-serif" font-size="12" font-weight="700" fill="#f0f6fc">Xamarin (Forms, iOS, Android)</text><rect x="150" y="73" width="616" height="16" rx="4" fill="#1c2128"/><rect x="150" y="73" width="591.11" height="16" rx="4" fill="#818cf8"/><text x="774" y="85" font-family="'JetBrains Mono', ui-monospace, monospace" font-size="11" font-weight="700" fill="#f0f6fc">95</text><text x="0" y="119" font-family="'Inter', system-ui, sans-serif" font-size="12" font-weight="700" fill="#f0f6fc">Bluetooth / BLE / GATT</text><rect x="150" y="107" width="616" height="16" rx="4" fill="#1c2128"/><rect x="150" y="107" width="547.56" height="16" rx="4" fill="#818cf8"/><text x="774" y="119" font-family="'JetBrains Mono', ui-monospace, monospace" font-size="11" font-weight="700" fill="#f0f6fc">88</text><text x="0" y="153" font-family="'Inter', system-ui, sans-serif" font-size="12" font-weight="700" fill="#f0f6fc">AI-Driven Development</text><rect x="150" y="141" width="616" height="16" rx="4" fill="#1c2128"/><rect x="150" y="141" width="516.44" height="16" rx="4" fill="#818cf8"/><text x="774" y="153" font-family="'JetBrains Mono', ui-monospace, monospace" font-size="11" font-weight="700" fill="#f0f6fc">83</text><text x="0" y="187" font-family="'Inter', system-ui, sans-serif" font-size="12" font-weight="700" fill="#f0f6fc">Python</text><rect x="150" y="175" width="616" height="16" rx="4" fill="#1c2128"/><rect x="150" y="175" width="504" height="16" rx="4" fill="#818cf8"/><text x="774" y="187" font-family="'JetBrains Mono', ui-monospace, monospace" font-size="11" font-weight="700" fill="#f0f6fc">81</text><text x="0" y="221" font-family="'Inter', system-ui, sans-serif" font-size="12" font-weight="700" fill="#f0f6fc">Docker</text><rect x="150" y="209" width="616" height="16" rx="4" fill="#1c2128"/><rect x="150" y="209" width="479.11" height="16" rx="4" fill="#818cf8"/><text x="774" y="221" font-family="'JetBrains Mono', ui-monospace, monospace" font-size="11" font-weight="700" fill="#f0f6fc">77</text><text x="0" y="255" font-family="'Inter', system-ui, sans-serif" font-size="12" font-weight="700" fill="#f0f6fc">Linux / Ubuntu</text><rect x="150" y="243" width="616" height="16" rx="4" fill="#1c2128"/><rect x="150" y="243" width="466.67" height="16" rx="4" fill="#818cf8"/><text x="774" y="255" font-family="'JetBrains Mono', ui-monospace, monospace" font-size="11" font-weight="700" fill="#f0f6fc">75</text></svg>
