<svg xmlns="http://www.w3.org/2000/svg" viewBox="0 0 590 596" width="590" height="596" role="img" aria-label="Engineering practices: Test-driven development ≈ 1,400 h professional 2025–active, Automated testing ≈ 970 h professional 2015–active, MVVM ≈ 850 h professional 2015–active, Domain-driven design ≈ 110 h working 2016–active."><title>Engineering practices: Test-driven development ≈ 1,400 h professional 2025–active, Automated testing ≈ 970 h professional 2015–active, MVVM ≈ 850 h professional 2015–active, Domain-driven design ≈ 110 h working 2016–active.</title><defs><pattern id="dots" width="24" height="24" patternUnits="userSpaceOnUse"><circle cx="2" cy="2" r="1.3" fill="#e4e8dc"/></pattern></defs><rect x="10.5" y="10.5" width="569" height="575" rx="22" fill="#fbfcf8" stroke="#d9dfcf"/><rect x="11" y="11" width="568" height="574" rx="21" fill="url(#dots)"/><text x="50" y="70" font-family="ui-monospace, 'SF Mono', Menlo, Consolas, 'Liberation Mono', monospace" font-size="20" font-weight="500" fill="#6b7361">skills --domain=practices</text><path transform="translate(50,120)" fill="#141810" d="M1.59375 0.0V-24.736328125H20.021484375V-19.65625H7.5703125V-14.8916015625H19.0751953125V-9.9609375H7.5703125V-5.080078125H20.021484375V0.0ZM28.35546875 -9.529296875V0.0H22.64453125V-17.53125H28.2890625V-14.6923828125Q29.1689453125 -16.1865234375 30.5302734375 -17.0498046875Q31.8916015625 -17.9130859375 33.8671875 -17.9130859375Q36.72265625 -17.9130859375 38.30810546875 -16.0869140625Q39.8935546875 -14.2607421875 39.8935546875 -11.0234375V0.0H34.1826171875V-9.828125Q34.1826171875 -11.388671875 33.435546875 -12.21044921875Q32.6884765625 -13.0322265625 31.3271484375 -13.0322265625Q29.982421875 -13.0322265625 29.1689453125 -12.17724609375Q28.35546875 -11.322265625 28.35546875 -9.529296875ZM51.73046875 7.171875Q47.6796875 7.171875 45.64599609375 5.5283203125Q43.6123046875 3.884765625 43.2138671875 1.361328125H48.67578125Q48.908203125 2.1748046875 49.705078125 2.64794921875Q50.501953125 3.12109375 51.73046875 3.12109375Q54.984375 3.12109375 54.984375 -0.3984375V-3.1044921875H54.9677734375Q54.2705078125 -1.5439453125 52.958984375 -0.830078125Q51.6474609375 -0.1162109375 49.9375 -0.1162109375Q47.6298828125 -0.1162109375 45.92822265625 -1.25341796875Q44.2265625 -2.390625 43.28857421875 -4.3828125Q42.3505859375 -6.375 42.3505859375 -8.9482421875Q42.3505859375 -11.5546875 43.3134765625 -13.580078125Q44.2763671875 -15.60546875 45.9697265625 -16.75927734375Q47.6630859375 -17.9130859375 49.8876953125 -17.9130859375Q53.291015625 -17.9130859375 54.9677734375 -15.07421875H54.984375V-17.53125H60.662109375V-0.962890625Q60.662109375 3.3203125 58.24658203125 5.24609375Q55.8310546875 7.171875 51.73046875 7.171875ZM51.53125 -4.5986328125Q53.158203125 -4.5986328125 54.16259765625 -5.80224609375Q55.1669921875 -7.005859375 55.1669921875 -9.0478515625Q55.1669921875 -11.056640625 54.16259765625 -12.2685546875Q53.158203125 -13.48046875 51.53125 -13.48046875Q49.9541015625 -13.48046875 49.04931640625 -12.3017578125Q48.14453125 -11.123046875 48.14453125 -9.0478515625Q48.14453125 -6.9560546875 49.04931640625 -5.77734375Q49.9541015625 -4.5986328125 51.53125 -4.5986328125ZM63.849609375 0.0V-17.53125H69.560546875V0.0ZM66.6884765625 -19.2412109375Q65.3271484375 -19.2412109375 64.43896484375 -20.0546875Q63.55078125 -20.8681640625 63.55078125 -22.1298828125Q63.55078125 -23.3916015625 64.43896484375 -24.19677734375Q65.3271484375 -25.001953125 66.6884765625 -25.001953125Q68.06640625 -25.001953125 68.95458984375 -24.19677734375Q69.8427734375 -23.3916015625 69.8427734375 -22.1298828125Q69.8427734375 -20.8681640625 68.95458984375 -20.0546875Q68.06640625 -19.2412109375 66.6884765625 -19.2412109375ZM78.458984375 -9.529296875V0.0H72.748046875V-17.53125H78.392578125V-14.6923828125Q79.2724609375 -16.1865234375 80.6337890625 -17.0498046875Q81.9951171875 -17.9130859375 83.970703125 -17.9130859375Q86.826171875 -17.9130859375 88.41162109375 -16.0869140625Q89.9970703125 -14.2607421875 89.9970703125 -11.0234375V0.0H84.2861328125V-9.828125Q84.2861328125 -11.388671875 83.5390625 -12.21044921875Q82.7919921875 -13.0322265625 81.4306640625 -13.0322265625Q80.0859375 -13.0322265625 79.2724609375 -12.17724609375Q78.458984375 -11.322265625 78.458984375 -9.529296875ZM101.4853515625 0.3984375Q98.7958984375 0.3984375 96.76220703125 -0.7802734375Q94.728515625 -1.958984375 93.59130859375 -4.02587890625Q92.4541015625 -6.0927734375 92.4541015625 -8.765625Q92.4541015625 -11.4384765625 93.59130859375 -13.50537109375Q94.728515625 -15.572265625 96.7373046875 -16.7509765625Q98.74609375 -17.9296875 101.3359375 -17.9296875Q103.9755859375 -17.9296875 105.97607421875 -16.77587890625Q107.9765625 -15.6220703125 109.10546875 -13.58837890625Q110.234375 -11.5546875 110.234375 -8.8984375V-7.3544921875H98.0322265625Q98.08203125 -5.677734375 99.03662109375 -4.6982421875Q99.9912109375 -3.71875 101.6845703125 -3.71875Q102.9462890625 -3.71875 103.80126953125 -4.2333984375Q104.65625 -4.748046875 104.9716796875 -5.611328125H110.1015625Q109.7861328125 -3.8515625 108.57421875 -2.490234375Q107.3623046875 -1.12890625 105.52783203125 -0.365234375Q103.693359375 0.3984375 101.4853515625 0.3984375ZM98.0654296875 -10.7744140625H104.9052734375Q104.7060546875 -12.15234375 103.8095703125 -12.9326171875Q102.9130859375 -13.712890625 101.4853515625 -13.712890625Q100.041015625 -13.712890625 99.14453125 -12.9326171875Q98.248046875 -12.15234375 98.0654296875 -10.7744140625ZM120.92578125 0.3984375Q118.236328125 0.3984375 116.20263671875 -0.7802734375Q114.1689453125 -1.958984375 113.03173828125 -4.02587890625Q111.89453125 -6.0927734375 111.89453125 -8.765625Q111.89453125 -11.4384765625 113.03173828125 -13.50537109375Q114.1689453125 -15.572265625 116.177734375 -16.7509765625Q118.1865234375 -17.9296875 120.7763671875 -17.9296875Q123.416015625 -17.9296875 125.41650390625 -16.77587890625Q127.4169921875 -15.6220703125 128.5458984375 -13.58837890625Q129.6748046875 -11.5546875 129.6748046875 -8.8984375V-7.3544921875H117.47265625Q117.5224609375 -5.677734375 118.47705078125 -4.6982421875Q119.431640625 -3.71875 121.125 -3.71875Q122.38671875 -3.71875 123.24169921875 -4.2333984375Q124.0966796875 -4.748046875 124.412109375 -5.611328125H129.5419921875Q129.2265625 -3.8515625 128.0146484375 -2.490234375Q126.802734375 -1.12890625 124.96826171875 -0.365234375Q123.1337890625 0.3984375 120.92578125 0.3984375ZM117.505859375 -10.7744140625H124.345703125Q124.146484375 -12.15234375 123.25 -12.9326171875Q122.353515625 -13.712890625 120.92578125 -13.712890625Q119.4814453125 -13.712890625 118.5849609375 -12.9326171875Q117.6884765625 -12.15234375 117.505859375 -10.7744140625ZM132.0654296875 0.0V-17.53125H137.59375V-14.443359375H137.6435546875Q138.125 -16.1201171875 139.14599609375 -16.85888671875Q140.1669921875 -17.59765625 141.9267578125 -17.59765625Q142.3916015625 -17.59765625 142.76513671875 -17.58935546875Q143.138671875 -17.5810546875 143.4873046875 -17.564453125V-12.849609375Q143.171875 -12.8662109375 142.5078125 -12.8828125Q141.84375 -12.8994140625 141.2294921875 -12.8994140625Q139.685546875 -12.8994140625 138.73095703125 -11.8701171875Q137.7763671875 -10.8408203125 137.7763671875 -8.9814453125V0.0ZM145.4462890625 0.0V-17.53125H151.1572265625V0.0ZM148.28515625 -19.2412109375Q146.923828125 -19.2412109375 146.03564453125 -20.0546875Q145.1474609375 -20.8681640625 145.1474609375 -22.1298828125Q145.1474609375 -23.3916015625 146.03564453125 -24.19677734375Q146.923828125 -25.001953125 148.28515625 -25.001953125Q149.6630859375 -25.001953125 150.55126953125 -24.19677734375Q151.439453125 -23.3916015625 151.439453125 -22.1298828125Q151.439453125 -20.8681640625 150.55126953125 -20.0546875Q149.6630859375 -19.2412109375 148.28515625 -19.2412109375ZM160.0556640625 -9.529296875V0.0H154.3447265625V-17.53125H159.9892578125V-14.6923828125Q160.869140625 -16.1865234375 162.23046875 -17.0498046875Q163.591796875 -17.9130859375 165.5673828125 -17.9130859375Q168.4228515625 -17.9130859375 170.00830078125 -16.0869140625Q171.59375 -14.2607421875 171.59375 -11.0234375V0.0H165.8828125V-9.828125Q165.8828125 -11.388671875 165.1357421875 -12.21044921875Q164.388671875 -13.0322265625 163.02734375 -13.0322265625Q161.6826171875 -13.0322265625 160.869140625 -12.17724609375Q160.0556640625 -11.322265625 160.0556640625 -9.529296875ZM183.4306640625 7.171875Q179.3798828125 7.171875 177.34619140625 5.5283203125Q175.3125 3.884765625 174.9140625 1.361328125H180.3759765625Q180.6083984375 2.1748046875 181.4052734375 2.64794921875Q182.2021484375 3.12109375 183.4306640625 3.12109375Q186.6845703125 3.12109375 186.6845703125 -0.3984375V-3.1044921875H186.66796875Q185.970703125 -1.5439453125 184.6591796875 -0.830078125Q183.34765625 -0.1162109375 181.6376953125 -0.1162109375Q179.330078125 -0.1162109375 177.62841796875 -1.25341796875Q175.9267578125 -2.390625 174.98876953125 -4.3828125Q174.05078125 -6.375 174.05078125 -8.9482421875Q174.05078125 -11.5546875 175.013671875 -13.580078125Q175.9765625 -15.60546875 177.669921875 -16.75927734375Q179.36328125 -17.9130859375 181.587890625 -17.9130859375Q184.9912109375 -17.9130859375 186.66796875 -15.07421875H186.6845703125V-17.53125H192.3623046875V-0.962890625Q192.3623046875 3.3203125 189.94677734375 5.24609375Q187.53125 7.171875 183.4306640625 7.171875ZM183.2314453125 -4.5986328125Q184.8583984375 -4.5986328125 185.86279296875 -5.80224609375Q186.8671875 -7.005859375 186.8671875 -9.0478515625Q186.8671875 -11.056640625 185.86279296875 -12.2685546875Q184.8583984375 -13.48046875 183.2314453125 -13.48046875Q181.654296875 -13.48046875 180.74951171875 -12.3017578125Q179.8447265625 -11.123046875 179.8447265625 -9.0478515625Q179.8447265625 -6.9560546875 180.74951171875 -5.77734375Q181.654296875 -4.5986328125 183.2314453125 -4.5986328125ZM202.33984375 6.939453125V-17.53125H207.984375V-15.240234375H208.0673828125Q209.64453125 -17.9130859375 213.1142578125 -17.9130859375Q215.3388671875 -17.9130859375 217.0322265625 -16.7509765625Q218.7255859375 -15.5888671875 219.68017578125 -13.5302734375Q220.634765625 -11.4716796875 220.634765625 -8.798828125Q220.634765625 -6.0263671875 219.69677734375 -3.95947265625Q218.7587890625 -1.892578125 217.05712890625 -0.75537109375Q215.35546875 0.3818359375 213.064453125 0.3818359375Q209.51171875 0.3818359375 208.1171875 -2.6064453125H208.05078125V6.939453125ZM211.4541015625 -4.18359375Q213.03125 -4.18359375 213.9443359375 -5.412109375Q214.857421875 -6.640625 214.857421875 -8.798828125Q214.857421875 -10.9404296875 213.9443359375 -12.15234375Q213.03125 -13.3642578125 211.4541015625 -13.3642578125Q209.84375 -13.3642578125 208.8310546875 -12.119140625Q207.818359375 -10.8740234375 207.818359375 -8.798828125Q207.818359375 -6.6904296875 208.8310546875 -5.43701171875Q209.84375 -4.18359375 211.4541015625 -4.18359375ZM223.1083984375 0.0V-17.53125H228.63671875V-14.443359375H228.6865234375Q229.16796875 -16.1201171875 230.18896484375 -16.85888671875Q231.2099609375 -17.59765625 232.9697265625 -17.59765625Q233.4345703125 -17.59765625 233.80810546875 -17.58935546875Q234.181640625 -17.5810546875 234.5302734375 -17.564453125V-12.849609375Q234.21484375 -12.8662109375 233.55078125 -12.8828125Q232.88671875 -12.8994140625 232.2724609375 -12.8994140625Q230.728515625 -12.8994140625 229.77392578125 -11.8701171875Q228.8193359375 -10.8408203125 228.8193359375 -8.9814453125V0.0ZM241.8515625 0.298828125Q239.2119140625 0.298828125 237.52685546875 -0.98779296875Q235.841796875 -2.2744140625 235.841796875 -4.8974609375Q235.841796875 -6.873046875 236.76318359375 -8.0185546875Q237.6845703125 -9.1640625 239.228515625 -9.7119140625Q240.7724609375 -10.259765625 242.6484375 -10.4091796875Q245.005859375 -10.6083984375 245.96875 -10.890625Q246.931640625 -11.1728515625 246.931640625 -11.9697265625V-12.052734375Q246.931640625 -12.8330078125 246.27587890625 -13.32275390625Q245.6201171875 -13.8125 244.4912109375 -13.8125Q243.2958984375 -13.8125 242.59033203125 -13.28125Q241.884765625 -12.75 241.8017578125 -11.853515625H236.4892578125Q236.671875 -14.708984375 238.77197265625 -16.31103515625Q240.8720703125 -17.9130859375 244.6904296875 -17.9130859375Q248.5087890625 -17.9130859375 250.55078125 -16.31103515625Q252.5927734375 -14.708984375 252.5927734375 -11.8037109375V0.0H247.0146484375V-2.45703125H246.9482421875Q246.16796875 -1.0458984375 244.939453125 -0.37353515625Q243.7109375 0.298828125 241.8515625 0.298828125ZM243.5947265625 -3.4365234375Q245.0224609375 -3.4365234375 246.001953125 -4.22509765625Q246.9814453125 -5.013671875 246.9814453125 -6.30859375V-7.90234375Q246.533203125 -7.6865234375 245.736328125 -7.5205078125Q244.939453125 -7.3544921875 243.876953125 -7.171875Q242.7314453125 -6.9892578125 241.99267578125 -6.5078125Q241.25390625 -6.0263671875 241.25390625 -5.1630859375Q241.25390625 -4.349609375 241.9013671875 -3.89306640625Q242.548828125 -3.4365234375 243.5947265625 -3.4365234375ZM264.1142578125 0.3984375Q261.3916015625 0.3984375 259.35791015625 -0.75537109375Q257.32421875 -1.9091796875 256.18701171875 -3.9677734375Q255.0498046875 -6.0263671875 255.0498046875 -8.765625Q255.0498046875 -11.48828125 256.18701171875 -13.55517578125Q257.32421875 -15.6220703125 259.3662109375 -16.77587890625Q261.408203125 -17.9296875 264.1142578125 -17.9296875Q266.5546875 -17.9296875 268.447265625 -17.0Q270.33984375 -16.0703125 271.46044921875 -14.4267578125Q272.5810546875 -12.783203125 272.7138671875 -10.6416015625H267.2021484375Q267.0693359375 -11.88671875 266.28076171875 -12.64208984375Q265.4921875 -13.3974609375 264.23046875 -13.3974609375Q262.6201171875 -13.3974609375 261.73193359375 -12.16064453125Q260.84375 -10.923828125 260.84375 -8.765625Q260.84375 -6.607421875 261.740234375 -5.37060546875Q262.63671875 -4.1337890625 264.23046875 -4.1337890625Q265.4921875 -4.1337890625 266.255859375 -4.8974609375Q267.01953125 -5.6611328125 267.185546875 -6.939453125H272.7138671875Q272.6474609375 -4.7978515625 271.54345703125 -3.14599609375Q270.439453125 -1.494140625 268.52197265625 -0.5478515625Q266.6044921875 0.3984375 264.1142578125 0.3984375ZM286.14453125 -17.53125V-13.115234375H282.5419921875V-5.8935546875Q282.5419921875 -5.046875 282.8740234375 -4.7314453125Q283.2060546875 -4.416015625 284.1689453125 -4.416015625H286.14453125V0.0H282.9072265625Q279.7529296875 0.0 278.28369140625 -1.18701171875Q276.814453125 -2.3740234375 276.814453125 -4.9306640625V-13.115234375H273.826171875V-17.53125H276.814453125V-22.3125H282.5419921875V-17.53125ZM288.435546875 0.0V-17.53125H294.146484375V0.0ZM291.2744140625 -19.2412109375Q289.9130859375 -19.2412109375 289.02490234375 -20.0546875Q288.13671875 -20.8681640625 288.13671875 -22.1298828125Q288.13671875 -23.3916015625 289.02490234375 -24.19677734375Q289.9130859375 -25.001953125 291.2744140625 -25.001953125Q292.65234375 -25.001953125 293.54052734375 -24.19677734375Q294.4287109375 -23.3916015625 294.4287109375 -22.1298828125Q294.4287109375 -20.8681640625 293.54052734375 -20.0546875Q292.65234375 -19.2412109375 291.2744140625 -19.2412109375ZM305.66796875 0.3984375Q302.9453125 0.3984375 300.91162109375 -0.75537109375Q298.8779296875 -1.9091796875 297.74072265625 -3.9677734375Q296.603515625 -6.0263671875 296.603515625 -8.765625Q296.603515625 -11.48828125 297.74072265625 -13.55517578125Q298.8779296875 -15.6220703125 300.919921875 -16.77587890625Q302.9619140625 -17.9296875 305.66796875 -17.9296875Q308.1083984375 -17.9296875 310.0009765625 -17.0Q311.8935546875 -16.0703125 313.01416015625 -14.4267578125Q314.134765625 -12.783203125 314.267578125 -10.6416015625H308.755859375Q308.623046875 -11.88671875 307.83447265625 -12.64208984375Q307.0458984375 -13.3974609375 305.7841796875 -13.3974609375Q304.173828125 -13.3974609375 303.28564453125 -12.16064453125Q302.3974609375 -10.923828125 302.3974609375 -8.765625Q302.3974609375 -6.607421875 303.2939453125 -5.37060546875Q304.1904296875 -4.1337890625 305.7841796875 -4.1337890625Q307.0458984375 -4.1337890625 307.8095703125 -4.8974609375Q308.5732421875 -5.6611328125 308.7392578125 -6.939453125H314.267578125Q314.201171875 -4.7978515625 313.09716796875 -3.14599609375Q311.9931640625 -1.494140625 310.07568359375 -0.5478515625Q308.158203125 0.3984375 305.66796875 0.3984375ZM324.958984375 0.3984375Q322.26953125 0.3984375 320.23583984375 -0.7802734375Q318.2021484375 -1.958984375 317.06494140625 -4.02587890625Q315.927734375 -6.0927734375 315.927734375 -8.765625Q315.927734375 -11.4384765625 317.06494140625 -13.50537109375Q318.2021484375 -15.572265625 320.2109375 -16.7509765625Q322.2197265625 -17.9296875 324.8095703125 -17.9296875Q327.44921875 -17.9296875 329.44970703125 -16.77587890625Q331.4501953125 -15.6220703125 332.5791015625 -13.58837890625Q333.7080078125 -11.5546875 333.7080078125 -8.8984375V-7.3544921875H321.505859375Q321.5556640625 -5.677734375 322.51025390625 -4.6982421875Q323.46484375 -3.71875 325.158203125 -3.71875Q326.419921875 -3.71875 327.27490234375 -4.2333984375Q328.1298828125 -4.748046875 328.4453125 -5.611328125H333.5751953125Q333.259765625 -3.8515625 332.0478515625 -2.490234375Q330.8359375 -1.12890625 329.00146484375 -0.365234375Q327.1669921875 0.3984375 324.958984375 0.3984375ZM321.5390625 -10.7744140625H328.37890625Q328.1796875 -12.15234375 327.283203125 -12.9326171875Q326.38671875 -13.712890625 324.958984375 -13.712890625Q323.5146484375 -13.712890625 322.6181640625 -12.9326171875Q321.7216796875 -12.15234375 321.5390625 -10.7744140625ZM343.8349609375 0.431640625Q341.4111328125 0.431640625 339.53515625 -0.298828125Q337.6591796875 -1.029296875 336.53857421875 -2.390625Q335.41796875 -3.751953125 335.2685546875 -5.611328125H340.896484375Q341.029296875 -4.6318359375 341.759765625 -4.0673828125Q342.490234375 -3.5029296875 343.751953125 -3.5029296875Q344.9306640625 -3.5029296875 345.5947265625 -3.91796875Q346.2587890625 -4.3330078125 346.2587890625 -4.9970703125Q346.2587890625 -6.0927734375 344.1337890625 -6.474609375L340.962890625 -7.0390625Q338.373046875 -7.50390625 337.02001953125 -8.8154296875Q335.6669921875 -10.126953125 335.6669921875 -12.2021484375Q335.6669921875 -14.7919921875 337.7587890625 -16.34423828125Q339.8505859375 -17.896484375 343.51953125 -17.896484375Q347.1884765625 -17.896484375 349.36328125 -16.26953125Q351.5380859375 -14.642578125 351.62109375 -11.8369140625H346.3583984375Q346.341796875 -12.75 345.60302734375 -13.3642578125Q344.8642578125 -13.978515625 343.71875 -13.978515625Q342.6064453125 -13.978515625 341.98388671875 -13.546875Q341.361328125 -13.115234375 341.361328125 -12.4677734375Q341.361328125 -11.388671875 343.25390625 -11.0234375L346.7734375 -10.3759765625Q349.4794921875 -9.8779296875 350.7744140625 -8.7158203125Q352.0693359375 -7.5537109375 352.0693359375 -5.5947265625Q352.0693359375 -3.8017578125 351.03173828125 -2.4404296875Q349.994140625 -1.0791015625 348.14306640625 -0.32373046875Q346.2919921875 0.431640625 343.8349609375 0.431640625Z"/><rect x="51" y="149" width="46" height="46" rx="11.52" fill="#fbfcf8" stroke="#3f6212" stroke-width="2"/><text x="74" y="180.53" text-anchor="middle" font-family="ui-monospace, 'SF Mono', Menlo, Consolas, 'Liberation Mono', monospace" font-size="23.7" font-weight="700" fill="#3f6212" letter-spacing="-0.69">TDD</text><text x="110" y="186" font-family="-apple-system, 'Segoe UI', Helvetica, Arial, sans-serif" font-size="22" font-weight="600" fill="#141810">Test-driven development</text><text x="50" y="216" font-family="ui-monospace, 'SF Mono', Menlo, Consolas, 'Liberation Mono', monospace" font-size="20" font-weight="500" fill="#525a4a">≈ 1,400 h · <tspan fill="#3f6212" font-weight="700">professional</tspan></text><text x="540" y="216" font-family="ui-monospace, 'SF Mono', Menlo, Consolas, 'Liberation Mono', monospace" font-size="20" font-weight="500" fill="#3f6212" text-anchor="end">2025–active</text><rect x="50" y="232" width="490" height="8" rx="4" fill="#eaede3"/><rect x="50" y="232" width="337.21" height="8" rx="4" fill="#3f6212"/><line x1="159.45" y1="229" x2="159.45" y2="243" stroke="#fbfcf8" stroke-width="2"/><line x1="316.04" y1="229" x2="316.04" y2="243" stroke="#fbfcf8" stroke-width="2"/><line x1="395.14" y1="229" x2="395.14" y2="243" stroke="#fbfcf8" stroke-width="2"/><line x1="472.63" y1="229" x2="472.63" y2="243" stroke="#fbfcf8" stroke-width="2"/><rect x="51" y="249" width="46" height="46" rx="11.52" fill="#fbfcf8" stroke="#3f6212" stroke-width="2"/><text x="74" y="280.53" text-anchor="middle" font-family="ui-monospace, 'SF Mono', Menlo, Consolas, 'Liberation Mono', monospace" font-size="23.7" font-weight="700" fill="#3f6212" letter-spacing="-0.69">TST</text><text x="110" y="286" font-family="-apple-system, 'Segoe UI', Helvetica, Arial, sans-serif" font-size="22" font-weight="600" fill="#141810">Automated testing</text><text x="50" y="316" font-family="ui-monospace, 'SF Mono', Menlo, Consolas, 'Liberation Mono', monospace" font-size="20" font-weight="500" fill="#525a4a">≈ 970 h · <tspan fill="#3f6212" font-weight="700">professional</tspan></text><text x="540" y="316" font-family="ui-monospace, 'SF Mono', Menlo, Consolas, 'Liberation Mono', monospace" font-size="20" font-weight="500" fill="#3f6212" text-anchor="end">2015–active</text><rect x="50" y="332" width="490" height="8" rx="4" fill="#eaede3"/><rect x="50" y="332" width="311.7" height="8" rx="4" fill="#3f6212"/><line x1="159.45" y1="329" x2="159.45" y2="343" stroke="#fbfcf8" stroke-width="2"/><line x1="316.04" y1="329" x2="316.04" y2="343" stroke="#fbfcf8" stroke-width="2"/><line x1="395.14" y1="329" x2="395.14" y2="343" stroke="#fbfcf8" stroke-width="2"/><line x1="472.63" y1="329" x2="472.63" y2="343" stroke="#fbfcf8" stroke-width="2"/><rect x="51" y="349" width="46" height="46" rx="11.52" fill="#fbfcf8" stroke="#3f6212" stroke-width="2"/><text x="74" y="379.2" text-anchor="middle" font-family="ui-monospace, 'SF Mono', Menlo, Consolas, 'Liberation Mono', monospace" font-size="20" font-weight="700" fill="#3f6212" letter-spacing="-1.9">MVVM</text><text x="110" y="386" font-family="-apple-system, 'Segoe UI', Helvetica, Arial, sans-serif" font-size="22" font-weight="600" fill="#141810">MVVM</text><text x="50" y="416" font-family="ui-monospace, 'SF Mono', Menlo, Consolas, 'Liberation Mono', monospace" font-size="20" font-weight="500" fill="#525a4a">≈ 850 h · <tspan fill="#3f6212" font-weight="700">professional</tspan></text><text x="540" y="416" font-family="ui-monospace, 'SF Mono', Menlo, Consolas, 'Liberation Mono', monospace" font-size="20" font-weight="500" fill="#3f6212" text-anchor="end">2015–active</text><rect x="50" y="432" width="490" height="8" rx="4" fill="#eaede3"/><rect x="50" y="432" width="302.74" height="8" rx="4" fill="#3f6212"/><line x1="159.45" y1="429" x2="159.45" y2="443" stroke="#fbfcf8" stroke-width="2"/><line x1="316.04" y1="429" x2="316.04" y2="443" stroke="#fbfcf8" stroke-width="2"/><line x1="395.14" y1="429" x2="395.14" y2="443" stroke="#fbfcf8" stroke-width="2"/><line x1="472.63" y1="429" x2="472.63" y2="443" stroke="#fbfcf8" stroke-width="2"/><rect x="51" y="449" width="46" height="46" rx="11.52" fill="#fbfcf8" stroke="#3f6212" stroke-width="2"/><text x="74" y="480.53" text-anchor="middle" font-family="ui-monospace, 'SF Mono', Menlo, Consolas, 'Liberation Mono', monospace" font-size="23.7" font-weight="700" fill="#3f6212" letter-spacing="-0.69">DDD</text><text x="110" y="486" font-family="-apple-system, 'Segoe UI', Helvetica, Arial, sans-serif" font-size="22" font-weight="600" fill="#141810">Domain-driven design</text><text x="50" y="516" font-family="ui-monospace, 'SF Mono', Menlo, Consolas, 'Liberation Mono', monospace" font-size="20" font-weight="500" fill="#525a4a">≈ 110 h · <tspan fill="#3f6212" font-weight="700">working</tspan></text><text x="540" y="516" font-family="ui-monospace, 'SF Mono', Menlo, Consolas, 'Liberation Mono', monospace" font-size="20" font-weight="500" fill="#3f6212" text-anchor="end">2016–active</text><rect x="50" y="532" width="490" height="8" rx="4" fill="#eaede3"/><rect x="50" y="532" width="165.26" height="8" rx="4" fill="#3f6212"/><line x1="159.45" y1="529" x2="159.45" y2="543" stroke="#fbfcf8" stroke-width="2"/><line x1="316.04" y1="529" x2="316.04" y2="543" stroke="#fbfcf8" stroke-width="2"/><line x1="395.14" y1="529" x2="395.14" y2="543" stroke="#fbfcf8" stroke-width="2"/><line x1="472.63" y1="529" x2="472.63" y2="543" stroke="#fbfcf8" stroke-width="2"/></svg>
